<svg xmlns="http://www.w3.org/2000/svg" xmlns:xlink="http://www.w3.org/1999/xlink" xmlns:inkscape="http://www.inkscape.org/namespaces/inkscape" version="1.1" width="197" height="165" viewBox="0 0 197 165">
<defs>
<path id="font_1_1" d="M.6589966 .23046875C.6759949 .23046875 .69400027 .23046875 .69400027 .25045777 .69400027 .27046205 .6759949 .27046205 .6589966 .27046205H.117996219C.100997928 .27046205 .08299255 .27046205 .08299255 .25045777 .08299255 .23046875 .100997928 .23046875 .117996219 .23046875H.6589966Z"/>
<path id="font_2_3" d="M.2899933 .35191346C.37199403 .37893678 .42999269 .4490509 .42999269 .52809146 .42999269 .6100464 .34199525 .6660156 .24598694 .6660156 .14498902 .6660156 .068984989 .60606387 .068984989 .53009036 .068984989 .49710084 .09098816 .47808839 .11999512 .47808839 .15098572 .47808839 .17098999 .50009158 .17098999 .5290985 .17098999 .57910159 .12399292 .57910159 .10899353 .57910159 .13999939 .62802127 .20599365 .64100649 .24198914 .64100649 .2829895 .64100649 .33799745 .6190338 .33799745 .5290985 .33799745 .51708987 .33599855 .45906068 .30999757 .4149933 .27999879 .36691285 .24598694 .36390687 .22099304 .36291505 .21299744 .36190797 .18899536 .35990907 .18199158 .35990907 .17399597 .35890199 .16699219 .35791017 .16699219 .3479004 .16699219 .33691407 .17399597 .33691407 .19099427 .33691407H.23498535C.31698609 .33691407 .35398866 .2686615 .35398866 .17037964 .35398866 .034469606 .2849884 .0055389406 .24099732 .0055389406 .19799805 .0055389406 .12298584 .022491456 .08799744 .08137512 .12298584 .07637024 .1539917 .09837341 .1539917 .1363678 .1539917 .17237854 .1269989 .19238281 .09799194 .19238281 .07398987 .19238281 .041992189 .17837525 .041992189 .1343689 .041992189 .043441774 .1349945-.022460938 .24398804-.022460938 .3659973-.022460938 .45700074 .06838989 .45700074 .17037964 .45700074 .252594 .3939972 .33088685 .2899933 .35191346Z"/>
<path id="font_2_2" d="M.1269989 .07699585 .23298645 .18003845C.3889923 .31811524 .44898988 .3721466 .44898988 .47216798 .44898988 .5860901 .35899354 .6660156 .23699951 .6660156 .12399292 .6660156 .049987794 .57411196 .049987794 .48516847 .049987794 .4291687 .099990848 .4291687 .102996829 .4291687 .11999512 .4291687 .15499878 .44117738 .15499878 .48217774 .15499878 .5081787 .13699341 .5341797 .101989749 .5341797 .09399414 .5341797 .09199524 .5341797 .08898926 .5331726 .11199951 .59806826 .1659851 .63500979 .22399903 .63500979 .31498719 .63500979 .35798646 .5541382 .35798646 .47216798 .35798646 .39215089 .30799867 .31311036 .25299073 .25108338L.06098938 .036987306C.049987794 .025985718 .049987794 .023986817 .049987794 0H.42099L.44898988 .17404175H.42399598C.4189911 .14402771 .4119873 .1000061 .4019928 .084991458 .394989 .07699585 .32899476 .07699585 .30699159 .07699585H.1269989Z"/>
<path id="font_2_1" d="M.2939911 .64004519C.2939911 .66400149 .2939911 .6660156 .2709961 .6660156 .20899964 .60227969 .12098694 .60227969 .08898926 .60227969V.57128909C.10899353 .57128909 .16799927 .57128909 .21998596 .5972748V.07902527C.21998596 .042999269 .21699524 .0309906 .1269989 .0309906H.09498596V0C.12998963 .0029907227 .21699524 .0029907227 .25698854 .0029907227 .29699708 .0029907227 .38398744 .0029907227 .4189911 0V.0309906H.3869934C.29699708 .0309906 .2939911 .041992189 .2939911 .07902527V.64004519Z"/>
<path id="font_2_4" d="M.2939911 .16503906V.07800293C.2939911 .041992189 .2919922 .0309906 .21798706 .0309906H.19699097V0C.23799134 .0029907227 .2899933 .0029907227 .33198548 .0029907227 .37399293 .0029907227 .4269867 .0029907227 .46798707 0V.0309906H.44699098C.37298585 .0309906 .37098695 .041992189 .37098695 .07800293V.16503906H.47099305V.19602967H.37098695V.65075686C.37098695 .67074587 .37098695 .6767578 .35499574 .6767578 .34599305 .6767578 .34298707 .6767578 .33499146 .66474917L.027999878 .19602967V.16503906H.2939911M.2999878 .19602967H.055999757L.2999878 .5688019V.19602967Z"/>
<clipPath id="clip_3">
<path transform="matrix(1.00005,0,0,-1.00005,-306.42323,149.75067)" d="M307.50859-13.45029H501.78254V147.9465H307.50859Z"/>
</clipPath>
<path id="font_4_1" d="M.33399964 .30233766C.33999635 .32835389 .36299134 .42037965 .43299867 .42037965 .43798829 .42037965 .46199037 .42037965 .48298646 .40734864 .45498658 .402359 .43499757 .37734986 .43499757 .35334779 .43499757 .33735658 .44599916 .31835938 .47299195 .31835938 .49499513 .31835938 .5269928 .3363495 .5269928 .37635804 .5269928 .42837525 .46798707 .4423828 .43399049 .4423828 .37599183 .4423828 .34098817 .38935853 .32899476 .36634828 .3039856 .43237306 .25 .4423828 .22099304 .4423828 .116989139 .4423828 .05999756 .3133545 .05999756 .28834535 .05999756 .27833558 .069992069 .27833558 .07199097 .27833558 .07998657 .27833558 .08299255 .28033448 .084991458 .28933717 .11898804 .39535523 .18499756 .42037965 .21899414 .42037965 .23799134 .42037965 .272995 .4113617 .272995 .35334779 .272995 .32235719 .2559967 .25532533 .21899414 .11528015 .20298767 .053268434 .16799927 .011245728 .12399292 .011245728 .117996219 .011245728 .09498596 .011245728 .07398987 .024276734 .09899902 .029266358 .12098694 .05027771 .12098694 .07827759 .12098694 .105270389 .09899902 .11328125 .083999637 .11328125 .053985597 .11328125 .0289917 .08728027 .0289917 .055267335 .0289917 .009246826 .07899475-.0107421879 .12298584-.0107421879 .18899536-.0107421879 .22499085 .059280397 .22799683 .0652771 .23999024 .028274537 .27598573-.0107421879 .33599855-.0107421879 .43899537-.0107421879 .49598695 .118270877 .49598695 .14328003 .49598695 .1532898 .4869995 .1532898 .48399354 .1532898 .47499085 .1532898 .47299195 .14929199 .47099305 .14228821 .43798829 .03527832 .36999513 .011245728 .33799745 .011245728 .29899598 .011245728 .2829895 .043273927 .2829895 .07727051 .2829895 .09927368 .2889862 .121276859 .2999878 .16529846L.33399964 .30233766Z"/>
<path id="font_4_2" d="M.48599244 .38136292C.48999024 .39537049 .48999024 .39736939 .48999024 .40437318 .48999024 .42237855 .47599793 .43138124 .46099855 .43138124 .45098878 .43138124 .43499757 .42536927 .42599488 .41036988 .42399598 .405365 .41600038 .37435914 .4119873 .35635377 .40499879 .33035279 .397995 .30334474 .3919983 .27633668L.34700013 .09628296C.34298707 .08126831 .2999878 .011245728 .23399353 .011245728 .18299866 .011245728 .17199707 .055267335 .17199707 .0922699 .17199707 .1382904 .18899536 .20030213 .22299195 .28833009 .23899842 .3293457 .24299622 .3403473 .24299622 .36035157 .24299622 .405365 .21099854 .4423828 .16099549 .4423828 .06599426 .4423828 .0289917 .29733277 .0289917 .28833009 .0289917 .27833558 .038986207 .27833558 .040985109 .27833558 .050994874 .27833558 .051986696 .28033448 .056991579 .29634095 .083999637 .3903656 .12399292 .42037965 .1579895 .42037965 .1659851 .42037965 .18299866 .42037965 .18299866 .3883667 .18299866 .36335755 .17298889 .3373413 .1659851 .31834413 .12599182 .21231079 .10798645 .1552887 .10798645 .10827637 .10798645 .019256592 .17098999-.0107421879 .22999573-.0107421879 .2689972-.0107421879 .30299378 .0062561037 .33099366 .03425598 .31799317-.017745972 .30599977-.06674194 .2659912-.11973572 .23999024-.15385437 .20199585-.18309021 .1559906-.18309021 .14199829-.18309021 .09700012-.18005371 .07998657-.14074707 .09599304-.14074707 .10899353-.14074707 .12298584-.1287384 .1329956-.11973572 .14299011-.10673523 .14299011-.08773804 .14299011-.056747438 .115997318-.052734376 .10598755-.052734376 .08299255-.052734376 .049987794-.068740848 .049987794-.11773682 .049987794-.16796875 .09399414-.20507813 .1559906-.20507813 .25898744-.20507813 .3619995-.11373901 .3899994-.00074768069L.48599244 .38136292Z"/>
</defs>
<path transform="matrix(1.00005,0,0,-1.00005,-306.42323,149.75067)" stroke-width=".3985" stroke-linecap="butt" stroke-miterlimit="10" stroke-linejoin="miter" fill="none" stroke="#bfbfbf" d="M339.91456-13.45029V147.9465M388.4738-13.45029V147.9465M437.033-13.45029V147.9465"/>
<path transform="matrix(1.00005,0,0,-1.00005,-306.42323,149.75067)" stroke-width=".3985" stroke-linecap="butt" stroke-miterlimit="10" stroke-linejoin="miter" fill="none" stroke="#bfbfbf" d="M307.50859 16.78618H501.78254M307.50859 84.04904H501.78254M307.50859 117.68047H501.78254"/>
<path transform="matrix(1.00005,0,0,-1.00005,-306.42323,149.75067)" stroke-width=".19925" stroke-linecap="butt" stroke-miterlimit="10" stroke-linejoin="miter" fill="none" stroke="#7f807f" d="M339.91456 48.29333V52.5419M388.4738 48.29333V52.5419M437.033 48.29333V52.5419"/>
<path transform="matrix(1.00005,0,0,-1.00005,-306.42323,149.75067)" stroke-width=".19925" stroke-linecap="butt" stroke-miterlimit="10" stroke-linejoin="miter" fill="none" stroke="#7f807f" d="M483.46665 16.78618H487.7178M483.46665 84.04904H487.7178M483.46665 117.68047H487.7178"/>
<path transform="matrix(1.00005,0,0,-1.00005,-306.42323,149.75067)" stroke-width=".3985" stroke-linecap="butt" stroke-miterlimit="10" stroke-linejoin="miter" fill="none" stroke="#000000" d="M307.50859 50.41762H499.79"/>
<path transform="matrix(1.00005,0,0,-1.00005,193.39176,99.330539)" d="M1.99252 0-1.19551 1.59401 0 0-1.19551-1.59401"/>
<path transform="matrix(1.00005,0,0,-1.00005,-306.42323,149.75067)" stroke-width=".3985" stroke-linecap="butt" stroke-miterlimit="10" stroke-linejoin="miter" fill="none" stroke="#000000" d="M485.59223-13.45029V145.95398"/>
<path transform="matrix(0,-1.00005,-1.00005,-0,179.19327,3.7893983)" d="M1.99252 0-1.19551 1.59401 0 0-1.19551-1.59401"/>
<use data-text="&#x2212;" xlink:href="#font_1_1" transform="matrix(9.963098,0,0,-9.963098,27.142457,111.39575)"/>
<use data-text="3" xlink:href="#font_2_3" transform="matrix(9.963098,0,0,-9.963098,34.89084,111.39575)"/>
<use data-text="&#x2212;" xlink:href="#font_1_1" transform="matrix(9.963098,0,0,-9.963098,75.70485,111.39575)"/>
<use data-text="2" xlink:href="#font_2_2" transform="matrix(9.963098,0,0,-9.963098,83.45323,111.39575)"/>
<use data-text="&#x2212;" xlink:href="#font_1_1" transform="matrix(9.963098,0,0,-9.963098,124.26631,111.39575)"/>
<use data-text="1" xlink:href="#font_2_1" transform="matrix(9.963098,0,0,-9.963098,132.0147,111.39575)"/>
<use data-text="&#x2212;" xlink:href="#font_1_1" transform="matrix(9.963098,0,0,-9.963098,160.81716,135.75897)"/>
<use data-text="2" xlink:href="#font_2_2" transform="matrix(9.963098,0,0,-9.963098,168.56554,135.75897)"/>
<use data-text="2" xlink:href="#font_2_2" transform="matrix(9.963098,0,0,-9.963098,168.5655,68.90764)"/>
<use data-text="4" xlink:href="#font_2_4" transform="matrix(9.963098,0,0,-9.963098,168.5655,35.274957)"/>
<g clip-path="url(#clip_3)">
<path transform="matrix(1.00005,0,0,-1.00005,-306.42323,149.75067)" stroke-width=".3985" stroke-linecap="butt" stroke-miterlimit="10" stroke-linejoin="miter" fill="none" stroke="#000000" d="M0 4304.7937 4.90451 4196.7814 9.80904 4090.1427 14.71358 3984.875 19.6181 3880.9808 24.52263 3778.4586 29.42715 3677.3077 34.33168 3577.53 39.23622 3479.1248 44.14075 3382.0916 49.04527 3286.4317 53.94981 3192.1429 58.85432 3099.2264 63.75887 3007.6834 68.66339 2917.5113 73.56792 2828.7125 78.47246 2741.285 83.37697 2655.2308 88.28151 2570.5487 93.18604 2487.2388 98.09056 2405.301 102.9951 2324.7359 107.89963 2245.5438 112.80414 2167.7227 117.70868 2091.2752 122.6132 2016.1986 127.51775 1942.4954 132.42227 1870.1635 137.3268 1799.2047 142.23133 1729.6182 147.13585 1661.4039 152.04039 1594.5618 156.94492 1529.092 161.84944 1464.9954 166.75397 1402.27 171.6585 1340.9169 176.56304 1280.937 181.46756 1222.3294 186.37209 1165.093 191.27663 1109.2297 196.18114 1054.7388 201.08567 1001.62008 205.9902 949.8736 210.89473 899.4993 215.79927 850.4983 220.7038 802.86849 225.6083 756.6109 230.51285 711.72659 235.41738 668.214 240.32192 626.07388 245.22644 585.3062 250.13095 545.9105 255.03549 507.88737 259.94004 471.23667 264.84458 435.9582 269.74909 402.0517 274.6536 369.51799 279.55815 338.35646 284.46266 308.56715 289.3672 280.1501 294.27174 253.10579 299.17625 227.43344 304.0808 203.13333 308.9853 180.2057 313.88984 158.65056 318.79438 138.46765 323.6989 119.65697 328.60346 102.21852 333.50798 86.15256 338.41249 71.45882 343.31703 58.13757 348.22154 46.18854 353.12608 35.61176 358.0306 26.40746 362.93513 18.57538 367.83967 12.11552 372.7442 7.02817 377.6487 3.31303 382.55326 .9704 387.4578 0 392.3623 .4018 397.2668 2.17612 402.17137 5.32263 407.0759 9.84138 411.9804 15.73264 416.88496 22.99611 421.78947 31.63182 426.694 41.64001 431.59855 53.02045 436.50309 65.77335 441.40763 79.89848 446.31214 95.39586 451.21665 112.26544 456.1212 130.50754 461.0257 150.12212 465.93025 171.10866 470.83476 193.46768 475.7393 217.1992 480.64384 242.30295 485.54838 268.7789"/>
</g>
<use data-text="x" xlink:href="#font_4_1" transform="matrix(9.963098,0,0,-9.963098,186.26638,95.80098)"/>
<use data-text="y" xlink:href="#font_4_2" transform="matrix(9.963098,0,0,-9.963098,182.81423,9.583664)"/>
</svg>
